<?xml version="1.0" encoding="utf-8"?>
<!-- Generator: Adobe Illustrator 16.0.0, SVG Export Plug-In . SVG Version: 6.00 Build 0)  -->
<!DOCTYPE svg PUBLIC "-//W3C//DTD SVG 1.1//EN" "http://www.w3.org/Graphics/SVG/1.1/DTD/svg11.dtd">
<svg version="1.1" id="Layer_1" xmlns="http://www.w3.org/2000/svg" xmlns:xlink="http://www.w3.org/1999/xlink" x="0px" y="0px"
	 width="2100px" height="1400px" viewBox="0 0 2100 1400" enable-background="new 0 0 2100 1400" xml:space="preserve">
<g>
	<path d="M1028.104,292.852c13.692-55.104,26.629-107.184,13.188-131.684c-0.084-0.196-0.42-0.728-1.904-1.036
		c-0.532-0.112-1.147-0.168-1.792-0.168c-2.912,0-6.468,1.12-8.819,2.884c-2.828,2.128-5.097,5.012-7.616,9.66
		c-12.096,22.68-23.044,62.552-33.46,121.884C980,338.1,971.544,426.496,968.52,469.224c14.645-32.368,40.572-98,53.089-150.107
		C1023.764,310.24,1025.948,301.476,1028.104,292.852z"/>
	<path d="M1050,14c-378.868,0-686,307.132-686,686s307.132,686,686,686s686-307.132,686-686S1428.868,14,1050,14z M1328.264,969.332
		c-13.244,24.191-53.592,97.859-121.324,129.107c-16.407,7.561-35.336,11.873-56.224,12.824c-30.744,1.4-55.552-1.708-77.56-9.828
		c-25.676-9.52-48.86-24.668-68.908-45.136c-23.912-24.388-42.924-52.724-59.725-77.728c-1.455-2.128-2.8-4.312-4.172-6.496
		c-1.428-2.24-2.8-4.452-4.256-6.58c-5.992,43.96-14.168,143.976-13.58,168.195c0.225,9.549-6.188,16.269-18.983,19.992
		c-8.456,2.437-16.94,3.332-25.061,3.332c-10.948,0-21.252-1.651-29.96-3.359c-13.188-2.604-19.712-11.704-17.808-25.004
		c2.268-15.82,18.284-152.544,23.94-233.185c2.043-29.68,6.02-67.956,9.155-98.7c1.652-16.184,3.388-32.676,4.368-44.044
		c-1.288,1.624-2.52,3.221-3.556,4.62l-7.112,9.912c-8.568,11.9-17.108,23.772-25.788,35.588
		c-4.788,6.553-12.908,14.532-27.804,8.232c-16.24-6.832-28.448-16.38-37.353-29.288c-7.336-10.528-4.34-19.18-0.476-26.208
		c6.104-11.061,14.196-20.636,22.036-29.904c2.296-2.688,4.563-5.376,6.775-8.092c15.736-19.32,30.716-39.312,44.492-58.044
		c11.452-15.568,20.58-31.976,26.404-47.488c6.916-18.452,12.516-46.647,16.632-83.775c2.688-24.276,4.984-52.332,7.196-79.464
		c2.128-26.013,4.144-50.597,6.159-67.229l1.484-12.6c3.836-32.816,10.977-93.94,23.576-145.544
		c13.328-54.656,33.684-93.772,62.216-119.56c20.188-17.108,44.296-23.044,71.624-17.78c15.82,3.052,29.428,13.076,38.305,28.252
		c48.411,72.828-6.664,243.852-24.696,294.56c-29.345,82.32-81.536,176.68-98.7,207.676c-3.388,6.16-5.572,10.024-6.076,11.088
		c-2.492,17.528-4.2,37.044-5.852,55.944c-0.98,11.172-1.96,22.344-3.164,33.348c-1.12,10.164-3.248,49-2.521,63.924
		c16.464-7.812,64.876-35.195,117.265-72.632c51.912-37.1,77.252-64.008,93.576-83.328l1.735-2.044
		c6.048-7.111,12.265-14.447,17.108-22.288c3.92-6.355,8.428-10.08,13.832-11.424c5.852-1.428,12.124-0.084,19.908,4.284
		c22.287,12.488,30.184,33.712,34.188,48.58c2.884,10.724-2.856,18.9-8.176,24.808c-26.46,29.372-74.76,74.229-123.061,108.248
		c-40.432,28.532-75.74,46.845-104.104,61.544c-13.16,6.805-24.5,12.685-34.524,18.593l-1.483,0.84
		c-2.017,0.952-4.116,1.932-5.376,2.604c0.56,1.204,1.512,2.969,2.464,4.676c4.06,7.336,7.756,14.141,11.34,20.832
		c5.852,10.809,11.508,21.309,18.2,32.956c19.655,34.272,38.695,59.444,58.268,77.028c14.476,13.02,30.408,22.204,48.748,28.14
		c11.648,3.78,23.884,4.62,39.788,2.856c11.76-1.344,23.548-6.972,37.1-17.668c30.549-24.052,57.288-68.769,83.16-112
		c6.244-10.444,17.108-13.3,28.28-7.532C1321.516,898.968,1343.496,941.5,1328.264,969.332z"/>
</g>
<path fill="none" d="M2390.809-691.432l-1.541,1.624c-11.844,12.6-39.535,42.112-40.18,102.284
	c-0.336,29.624,10.668,46.788,19.908,56c10.248,10.192,23.771,15.708,36.96,15.904c12.712-0.196,29.849-8.904,38.22-19.376
	c12.124-15.176,15.316-28.84,16.856-35.392c0.476-1.96,0.448-2.576,0.448-2.744c-0.057,0-0.393-0.392-1.373-0.924
	c-14.644-8.512-27.523-19.292-39.34-33.04c-9.128-10.64-15.036-21.729-19.151-36.008c-4.704-16.52-5.74-43.036,5.348-63
	C2402.008-702.632,2397.444-698.6,2390.809-691.432z"/>
<path fill="none" d="M2439.164-554.96c28.98-127.092,62.691-243.768,33.516-300.02c-6.216-12.012-27.048-9.548-38.527-0.42
	c-7.336,5.824-12.124,13.356-16.269,21.56c-21.392,42.364-41.048,116.368-59.808,228.872
	c-18.284,109.872-38.725,366.128-35.364,371.728C2334.36-239.092,2410.184-427.868,2439.164-554.96z"/>
<path fill="none" d="M4192.972,268.688c-12.572-22.232-35.504-49.336-65.072-46.032c-26.292,2.939-39.368,24.612-42.588,51.044
	c-4.228,34.552,0.729,58.884,13.16,87.332c21.532,49.308,58.464,89.544,101.976,120.092c10.248,7.196,12.824,6.104,14.925-6.776
	c4.62-28.615,3.948-85.54,1.848-109.172C4214.168,330.876,4210.332,299.404,4192.972,268.688z"/>
<path fill="none" d="M1717.604,195.776c18.48-81.06,39.984-155.456,21.393-191.352c-3.977-7.672-17.248-6.076-24.584-0.28
	c-4.676,3.724-7.729,8.512-10.36,13.748c-13.636,27.02-26.18,74.228-38.136,145.964c-11.676,70.056-24.725,233.52-22.568,237.076
	C1650.768,397.236,1699.124,276.836,1717.604,195.776z"/>
</svg>
